<svg width="100" height="100" viewBox="0 0 100 100" xmlns="http://www.w3.org/2000/svg">
  <!-- Wings -->
  <path d="M50 50 Q10 10 10 60 Q30 50 50 50 Z" fill="#E63946" /> <!-- Left Wing -->
  <path d="M50 50 Q90 10 90 60 Q70 50 50 50 Z" fill="#E63946" /> <!-- Right Wing -->

  <!-- Outer Tail Feathers -->
  <path d="M50 60 L35 90 L50 75 L65 90 Z" fill="#F4A261" />

  <!-- Body and Head -->
  <path d="M50 30 Q45 30 45 45 L50 65 L55 45 Q55 30 50 30 Z" fill="#D62828" /> <!-- Body -->
  <circle cx="50" cy="30" r="8" fill="#D62828" /> <!-- Head -->

  <!-- Flame Details / Inner Wings -->
  <path d="M50 50 Q25 25 30 55 Q40 50 50 50 Z" fill="#F4A261" opacity="0.8" />
  <path d="M50 50 Q75 25 70 55 Q60 50 50 50 Z" fill="#F4A261" opacity="0.8" />

  <!-- Beak -->
  <path d="M50 28 L53 32 L47 32 Z" fill="#FCBF49" />
</svg>
